#!OML:ASF I:\Actors\actors\Patient Classification 1\Patient 1\Session 1\Subject1.ASF
:FULLY-SPECIFIED
:DEGREES
219
root 0.764311 17.8134 8.84199 33.6386 1.72531 -8.81051
lowerback 14.5558 0.487658 6.58067
upperback -1.23732 2.138 3.45713
thorax -9.45395 0.784771 -0.460377
lowerneck -12.0432 -2.33178 -0.986808
upperneck -8.36568 -2.74515 8.30129
head -0.468782 -1.34148 2.73866
rclavicle -9.0447e-015 -1.02374e-014
rhumerus 90.2585 0.685746 -74.7603
rradius 19.1057
rwrist 64.3601
rhand -14.9061 -38.6763
rfingers 7.12502
rthumb 11.2554 -68.3543
lclavicle -9.0447e-015 -1.02374e-014
lhumerus 90.6371 -3.623 109.672
lradius 10.698
lwrist -69.1293
lhand -53.249 -45.8398
lfingers 7.12502
lthumb -25.7043 -17.5554
rfemur -34.9312 33.1006 6.18817
rtibia -3.31308
rfoot -11.9931 -37.9349
rtoes 20.8856
lfemur -34.9203 -50.5144 24.2189
ltibia -8.35337
lfoot -58.9743 49.7573
ltoes 47.4375
220
root 0.771329 17.8145 8.84519 33.7064 1.69062 -8.79008
lowerback 14.6238 0.474189 6.49194
upperback -1.30213 2.11558 3.45256
thorax -9.56856 0.774497 -0.411257
lowerneck -11.7642 -2.12631 -0.419445
upperneck -8.31964 -2.55337 7.62576
head -0.530376 -1.2671 2.41696
rclavicle 5.86415e-015 -8.05078e-015
rhumerus 90.1073 0.664474 -74.0921
rradius 19.2739
rwrist 63.63
rhand -14.7815 -38.5539
rfingers 7.12502
rthumb 11.3755 -68.2253
lclavicle 5.86415e-015 -8.05078e-015
lhumerus 90.5697 -3.49192 109.076
lradius 10.7128
lwrist -68.3369
lhand -53.0948 -45.6575
lfingers 7.12502
lthumb -25.5566 -17.3519
rfemur -35.0081 33.1464 6.04822
rtibia -3.34235
rfoot -12.073 -38.0057
rtoes 21.1288
lfemur -34.9012 -50.4446 24.1222
ltibia -8.41397
lfoot -58.9209 49.7527
ltoes 47.4593
221
root 0.779061 17.8166 8.84681 33.7846 1.68877 -8.80942
lowerback 14.6611 0.445184 6.44073
upperback -1.29952 2.07521 3.49274
thorax -9.59258 0.75849 -0.330588
lowerneck -11.5615 -1.7351 0.435451
upperneck -8.13383 -2.17244 6.28689
head -0.551859 -1.10069 1.8362
rclavicle -6.4605e-015 -1.19271e-014
rhumerus 90.1086 0.821359 -74.2113
rradius 19.3019
rwrist 63.8227
rhand -14.7801 -38.2962
rfingers 7.12502
rthumb 11.3769 -67.9676
lclavicle -6.4605e-015 -1.19271e-014
lhumerus 90.6192 -3.35889 108.55
lradius 10.7538
lwrist -68.0642
lhand -52.9206 -45.4673
lfingers 7.12502
lthumb -25.3897 -17.1379
rfemur -35.1252 33.1738 5.94009
rtibia -3.34325
rfoot -12.0148 -38.0722
rtoes 20.9533
lfemur -34.9237 -50.3514 24.1196
ltibia -8.47554
lfoot -58.727 49.8891
ltoes 47.3439
222
root 0.788025 17.8197 8.8472 33.874 1.67806 -8.81289
lowerback 14.681 0.418448 6.39011
upperback -1.21189 2.03141 3.55089
thorax -9.51315 0.745131 -0.230415
lowerneck -11.9955 -1.75104 0.444068
upperneck -7.93818 -2.21963 6.17545
head -0.420129 -1.11357 1.79241
rclavicle 4.96962e-016 -3.08116e-014
rhumerus 90.262 0.899095 -73.9282
rradius 19.3206
rwrist 63.7707
rhand -14.8753 -38.283
rfingers 7.12502
rthumb 11.285 -67.9594
lclavicle 4.96962e-016 -3.08116e-014
lhumerus 90.8204 -3.30325 108.027
lradius 10.8059
lwrist -67.8464
lhand -52.8374 -45.2377
lfingers 7.12502
lthumb -25.31 -16.897
rfemur -35.2702 33.1796 5.78657
rtibia -3.32513
rfoot -12.0152 -38.1142
rtoes 20.8666
lfemur -35.0144 -50.2495 24.1179
ltibia -8.46032
lfoot -58.6136 49.902
ltoes 47.3527
223
root 0.79676 17.8232 8.84787 33.9581 1.68782 -8.86579
lowerback 14.7168 0.39289 6.41218
upperback -1.18934 2.00606 3.5824
thorax -9.5108 0.733091 -0.203561
lowerneck -12.1655 -1.75819 0.484776
upperneck -7.81875 -2.24581 6.14112
head -0.355145 -1.12257 1.77132
rclavicle 5.96354e-015 3.48867e-014
rhumerus 90.2474 0.934862 -73.5146
rradius 19.3641
rwrist 63.6069
rhand -14.9787 -38.3544
rfingers 7.12502
rthumb 11.1853 -68.0362
lclavicle 5.96354e-015 3.48867e-014
lhumerus 90.8881 -3.21011 106.599
lradius 10.9506
lwrist -66.5194
lhand -52.9031 -45.165
lfingers 7.12502
lthumb -25.373 -16.8332
rfemur -35.3972 33.2097 5.70421
rtibia -3.32296
rfoot -12.0438 -38.1308
rtoes 21.1968
lfemur -35.092 -50.1173 24.1893
ltibia -8.46795
lfoot -58.5271 49.8643
ltoes 47.3934
224
root 0.805068 17.8259 8.84941 34.0464 1.6699 -8.89884
lowerback 14.737 0.37481 6.39392
upperback -1.25701 1.9867 3.59012
thorax -9.59918 0.721894 -0.18026
lowerneck -11.8418 -1.71998 0.584982
upperneck -7.85938 -2.19711 6.12219
head -0.423367 -1.10706 1.7517
rclavicle 6.36111e-015 1.69961e-014
rhumerus 90.0306 1.04595 -73.3894
rradius 19.3954
rwrist 63.7416
rhand -15.054 -38.2275
rfingers 7.12502
rthumb 11.1126 -67.9133
lclavicle 6.36111e-015 1.69961e-014
lhumerus 90.7841 -3.10749 105.454
lradius 11.0598
lwrist -65.4262
lhand -52.9447 -44.8521
lfingers 7.12502
lthumb -25.4128 -16.526
rfemur -35.5477 33.2501 5.58405
rtibia -3.31266
rfoot -11.803 -38.1759
rtoes 21.276
lfemur -35.1634 -49.9704 24.2254
ltibia -8.46284
lfoot -58.3302 49.9388
ltoes 47.3146
225
root 0.812551 17.8277 8.85133 34.1536 1.63101 -8.89293
lowerback 14.6894 0.366883 6.29116
upperback -1.24128 1.95714 3.64215
thorax -9.56073 0.715981 -0.0594025
lowerneck -11.6087 -1.67207 0.683826
upperneck -8.01157 -2.13574 5.96645
head -0.514579 -1.08708 1.68882
rclavicle 1.16289e-014 -1.59028e-015
rhumerus 89.9648 1.10992 -72.8292
rradius 19.4621
rwrist 63.4268
rhand -15.1183 -38.1911
rfingers 7.12502
rthumb 11.0506 -67.8802
lclavicle 1.16289e-014 -1.59028e-015
lhumerus 90.8509 -3.07049 105.293
lradius 11.069
lwrist -65.3252
lhand -52.9068 -44.2772
lfingers 7.12502
lthumb -25.3764 -15.9459
rfemur -35.7645 33.2654 5.38581
rtibia -3.24526
rfoot -11.4149 -38.2416
rtoes 21.1432
lfemur -35.274 -49.8301 24.2192
ltibia -8.4171
lfoot -58.0584 50.1108
ltoes 47.0943
226
root 0.81856 17.8301 8.85288 34.2683 1.65479 -8.94062
lowerback 14.4419 0.622626 6.52913
upperback -0.446134 2.23417 3.44689
thorax -8.51372 0.869407 -0.464862
lowerneck -14.5083 -1.86498 1.40148
upperneck -7.50734 -2.60513 5.61819
head 0.104358 -1.28768 1.41528
rclavicle -1.81888e-014 -2.65378e-014
rhumerus 91.0851 -0.195303 -72.3959
rradius 19.5824
rwrist 63.2407
rhand -15.3111 -38.2227
rfingers 7.12502
rthumb 10.8647 -67.9217
lclavicle -1.81888e-014 -2.65378e-014
lhumerus 92.17 -4.24188 104.138
lradius 11.2488
lwrist -64.2528
lhand -52.8551 -43.6393
lfingers 7.12502
lthumb -25.327 -15.301
rfemur -36.0026 33.2702 5.27973
rtibia -3.14734
rfoot -11.1078 -38.3059
rtoes 21.04
lfemur -35.4045 -49.6943 24.3238
ltibia -8.40682
lfoot -57.8653 50.2047
ltoes 46.9381
227
root 0.82491 17.8344 8.85332 34.3634 1.7069 -8.99486
lowerback 14.4818 0.687456 6.60143
upperback -0.468369 2.33816 3.45163
thorax -8.5529 0.914739 -0.522771
lowerneck -14.4172 -1.92335 1.50357
upperneck -7.53912 -2.69343 5.60674
head 0.0791097 -1.33691 1.39085
rclavicle -1.43125e-014 -1.35174e-014
rhumerus 90.8856 -0.448507 -71.9689
rradius 19.7071
rwrist 63.0864
rhand -15.4755 -38.2153
rfingers 7.12502
rthumb 10.7061 -67.9225
lclavicle -1.43125e-014 -1.35174e-014
lhumerus 92.1882 -4.431 103.168
lradius 11.3404
lwrist -63.2711
lhand -52.8257 -43.0192
lfingers 7.12502
lthumb -25.2988 -14.6769
rfemur -36.2082 33.268 5.21975
rtibia -3.06104
rfoot -10.8973 -38.3822
rtoes 21.0135
lfemur -35.5407 -49.5893 24.444
ltibia -8.39175
lfoot -57.7013 50.2664
ltoes 46.8719
